<mxfile host="65bd71144e">
    <diagram id="Xm2N-Juzn5T2X-U-FHJl" name="Page-1">
        <mxGraphModel dx="691" dy="329" grid="1" gridSize="10" guides="1" tooltips="1" connect="1" arrows="1" fold="1" page="1" pageScale="1" pageWidth="850" pageHeight="1100" math="0" shadow="0">
            <root>
                <mxCell id="0"/>
                <mxCell id="1" parent="0"/>
                <mxCell id="2" value="" style="rounded=0;whiteSpace=wrap;html=1;movable=1;resizable=1;rotatable=1;deletable=1;editable=1;connectable=1;fillColor=#000000;strokeColor=#FFFFFF;fontColor=#FFFFFF;" vertex="1" parent="1">
                    <mxGeometry x="210" y="130" width="320" height="240" as="geometry"/>
                </mxCell>
                <mxCell id="3" value="" style="rounded=0;whiteSpace=wrap;html=1;fillColor=#000000;strokeColor=#FFFFFF;fontColor=#FFFFFF;" vertex="1" parent="1">
                    <mxGeometry x="210" y="130" width="320" height="20" as="geometry"/>
                </mxCell>
                <mxCell id="4" value="" style="rounded=0;whiteSpace=wrap;html=1;fillColor=#000000;strokeColor=#FFFFFF;fontColor=#FFFFFF;" vertex="1" parent="1">
                    <mxGeometry x="210" y="150" width="160" height="44" as="geometry"/>
                </mxCell>
                <mxCell id="5" value="" style="rounded=0;whiteSpace=wrap;html=1;fillColor=#000000;strokeColor=#FFFFFF;fontColor=#FFFFFF;" vertex="1" parent="1">
                    <mxGeometry x="210" y="194" width="160" height="44" as="geometry"/>
                </mxCell>
                <mxCell id="9" value="" style="rounded=0;whiteSpace=wrap;html=1;fillColor=#000000;strokeColor=#FFFFFF;fontColor=#FFFFFF;" vertex="1" parent="1">
                    <mxGeometry x="210" y="326" width="160" height="44" as="geometry"/>
                </mxCell>
                <mxCell id="10" value="" style="rounded=0;whiteSpace=wrap;html=1;fillColor=#000000;strokeColor=#FFFFFF;fontColor=#FFFFFF;" vertex="1" parent="1">
                    <mxGeometry x="210" y="238" width="160" height="44" as="geometry"/>
                </mxCell>
                <mxCell id="11" value="" style="rounded=0;whiteSpace=wrap;html=1;fillColor=#000000;strokeColor=#FFFFFF;fontColor=#FFFFFF;" vertex="1" parent="1">
                    <mxGeometry x="210" y="282" width="160" height="44" as="geometry"/>
                </mxCell>
                <mxCell id="14" value="Tem" style="rounded=0;whiteSpace=wrap;html=1;fillColor=#000000;strokeColor=#FFFFFF;fontColor=#FFFFFF;" vertex="1" parent="1">
                    <mxGeometry x="210" y="150" width="44" height="44" as="geometry"/>
                </mxCell>
                <mxCell id="15" value="Hum" style="rounded=0;whiteSpace=wrap;html=1;fillColor=#000000;strokeColor=#FFFFFF;fontColor=#FFFFFF;" vertex="1" parent="1">
                    <mxGeometry x="210" y="194" width="44" height="44" as="geometry"/>
                </mxCell>
                <mxCell id="16" value="Lat" style="rounded=0;whiteSpace=wrap;html=1;fillColor=#000000;strokeColor=#FFFFFF;fontColor=#FFFFFF;" vertex="1" parent="1">
                    <mxGeometry x="210" y="238" width="44" height="44" as="geometry"/>
                </mxCell>
                <mxCell id="17" value="Long" style="rounded=0;whiteSpace=wrap;html=1;fillColor=#000000;strokeColor=#FFFFFF;fontColor=#FFFFFF;" vertex="1" parent="1">
                    <mxGeometry x="210" y="282" width="44" height="44" as="geometry"/>
                </mxCell>
                <mxCell id="18" value="Time" style="rounded=0;whiteSpace=wrap;html=1;fillColor=#000000;strokeColor=#FFFFFF;fontColor=#FFFFFF;" vertex="1" parent="1">
                    <mxGeometry x="210" y="326" width="44" height="44" as="geometry"/>
                </mxCell>
                <mxCell id="24" value="" style="rounded=0;whiteSpace=wrap;html=1;fillColor=#000000;strokeColor=#FFFFFF;fontColor=#FFFFFF;" vertex="1" parent="1">
                    <mxGeometry x="370" y="150" width="160" height="44" as="geometry"/>
                </mxCell>
                <mxCell id="25" value="" style="rounded=0;whiteSpace=wrap;html=1;fillColor=#000000;strokeColor=#FFFFFF;fontColor=#FFFFFF;" vertex="1" parent="1">
                    <mxGeometry x="370" y="194" width="160" height="44" as="geometry"/>
                </mxCell>
                <mxCell id="26" value="" style="rounded=0;whiteSpace=wrap;html=1;fillColor=#000000;strokeColor=#FFFFFF;fontColor=#FFFFFF;" vertex="1" parent="1">
                    <mxGeometry x="370" y="326" width="160" height="44" as="geometry"/>
                </mxCell>
                <mxCell id="27" value="" style="rounded=0;whiteSpace=wrap;html=1;fillColor=#000000;strokeColor=#FFFFFF;fontColor=#FFFFFF;" vertex="1" parent="1">
                    <mxGeometry x="370" y="238" width="160" height="44" as="geometry"/>
                </mxCell>
                <mxCell id="28" value="" style="rounded=0;whiteSpace=wrap;html=1;fillColor=#000000;strokeColor=#FFFFFF;fontColor=#FFFFFF;" vertex="1" parent="1">
                    <mxGeometry x="370" y="282" width="160" height="44" as="geometry"/>
                </mxCell>
                <mxCell id="29" value="PM1.0" style="rounded=0;whiteSpace=wrap;html=1;fillColor=#000000;strokeColor=#FFFFFF;fontColor=#FFFFFF;" vertex="1" parent="1">
                    <mxGeometry x="370" y="150" width="44" height="44" as="geometry"/>
                </mxCell>
                <mxCell id="30" value="PM2.5" style="rounded=0;whiteSpace=wrap;html=1;fillColor=#000000;strokeColor=#FFFFFF;fontColor=#FFFFFF;" vertex="1" parent="1">
                    <mxGeometry x="370" y="194" width="44" height="44" as="geometry"/>
                </mxCell>
                <mxCell id="31" value="PM10" style="rounded=0;whiteSpace=wrap;html=1;fillColor=#000000;strokeColor=#FFFFFF;fontColor=#FFFFFF;" vertex="1" parent="1">
                    <mxGeometry x="370" y="238" width="44" height="44" as="geometry"/>
                </mxCell>
                <mxCell id="32" value="CO" style="rounded=0;whiteSpace=wrap;html=1;fillColor=#000000;strokeColor=#FFFFFF;fontColor=#FFFFFF;" vertex="1" parent="1">
                    <mxGeometry x="370" y="282" width="44" height="44" as="geometry"/>
                </mxCell>
                <mxCell id="33" value="Noise" style="rounded=0;whiteSpace=wrap;html=1;fillColor=#000000;strokeColor=#FFFFFF;fontColor=#FFFFFF;" vertex="1" parent="1">
                    <mxGeometry x="370" y="326" width="44" height="44" as="geometry"/>
                </mxCell>
                <mxCell id="35" value="" style="rounded=0;whiteSpace=wrap;html=1;fillColor=#000000;strokeColor=#FFFFFF;fontColor=#FFFFFF;" vertex="1" parent="1">
                    <mxGeometry x="480" y="130" width="50" height="20" as="geometry"/>
                </mxCell>
                <mxCell id="36" value="" style="rounded=0;whiteSpace=wrap;html=1;fillColor=#000000;strokeColor=#FFFFFF;fontColor=#FFFFFF;" vertex="1" parent="1">
                    <mxGeometry x="210" y="130" width="70" height="20" as="geometry"/>
                </mxCell>
            </root>
        </mxGraphModel>
    </diagram>
</mxfile>